<svg width="454" height="454" viewBox="0 0 454 454" fill="none" xmlns="http://www.w3.org/2000/svg">
<g clip-path="url(#clip0_6_36)">
<path d="M226.8 0C101.53 0 0 101.53 0 226.8C0 352.07 101.53 453.63 226.8 453.63C352.07 453.63 453.63 352.08 453.63 226.8C453.63 101.52 352.08 0 226.8 0Z" fill="white"/>
<path d="M108.28 271.9C112.79 269.49 117.19 267.44 122.17 265.13C124.47 264.08 126.86 262.96 129.46 261.73C138.42 257.43 148.19 251.74 152.06 248.9C154.56 247.1 157.38 244.78 159.9 242.73C161.7 241.26 163.27 239.96 164.37 239.16C165.84 238.04 167.17 236.96 168.69 235.71C168.94 233.16 169.66 230.52 170.44 227.94C170.54 227.62 170.61 227.34 170.66 227.17C171.03 225.27 171.21 223.35 171.36 221.5C171.48 219.95 171.61 218.35 171.91 216.78C171.93 216.61 171.93 216.38 171.96 216.16C172.01 215.39 172.06 214.49 172.26 213.14C172.61 211.09 174.31 204.77 176.28 201.95C177.43 200.35 178.55 199.15 180.6 196.96L181.3 196.19C183.1 194.27 186.62 189.45 188.84 185.9C191.41 181.71 197.75 173.59 201.25 169.64C203.85 166.72 206.82 164.3 209.22 162.4C208.72 157.71 208.55 152.74 209.84 148.79C212.49 140.72 220.85 137.93 222.5 137.45C223.67 137.13 224.7 136.98 225.72 136.98C228.52 136.98 230.71 138.03 232.86 139.05C233.68 139.45 235.21 140.02 236.76 140.6C236.98 140.4 237.21 140.23 237.43 140.05C237.88 139.7 238.35 139.35 238.98 138.75C241 136.75 247.99 129.09 251.19 125.02C252.43 123.42 255.96 118.31 259.92 112.58C260.71 111.43 261.14 110.07 261.14 108.68V104.65C250.23 101.58 238.72 99.93 226.81 99.93C217.02 99.93 207.48 101.05 198.32 103.15V168.35L139.82 134.57C124.51 149 112.78 167.21 106.13 187.66L166.91 222.77L104.08 259.03C105.24 263.43 106.68 267.72 108.28 271.92V271.9Z" fill="#E30613"/>
<path d="M334.17 159.38C330.9 161.8 327.19 164.26 324 166.23C325.45 169.2 327.17 173.37 327 176.27C326.98 176.84 326.95 177.37 326.95 177.84C326.83 181.64 326.63 188 318.38 191.82C315.16 193.32 313.24 193.62 310.86 193.87C310.86 193.87 309.36 194.04 309.11 194.07C309.68 196.47 309.96 199.26 309.53 201.16C309.11 203.33 307.91 204.81 307.21 205.63C306.79 206.78 306.01 208.63 304.49 210.2C303.84 210.9 303.12 211.37 302.39 211.77C302.39 211.84 302.37 211.94 302.37 212.02C302.06 214.44 301.82 216.18 301.48 217.6L348.38 190.52C345.06 179.42 340.22 168.98 334.16 159.37L334.17 159.38Z" fill="#E30613"/>
<path d="M296.1 224.81C294.99 225.62 293.82 226.37 292.69 227.08C292.32 227.3 291.97 227.53 291.67 227.73C291.25 228.38 290.57 229.55 290.07 230.35C288.3 233.37 287.12 235.29 285.8 236.62C283.6 238.82 280.56 240.59 277.46 241.51C276.66 241.73 275.91 241.91 275.24 242.06C275.07 242.11 274.87 242.13 274.69 242.18C274.12 242.6 272.29 244 271.17 244.9C269.85 245.9 268.65 246.85 267.97 247.32C267.15 247.92 266.3 248.47 265.47 249.02C265.49 249.19 265.49 249.37 265.52 249.57C265.69 251.74 265.12 255.11 263.67 257.41C263.17 258.18 262.52 258.86 261.35 260.08C260.7 260.75 259.25 262.25 258.73 262.95C258.58 263.27 258.53 263.45 258.46 263.62C258.11 264.59 257.69 265.69 256.61 267.12C254.96 269.32 251.54 271.64 249.29 272.79L249.22 272.94L249.07 273.34C248.52 274.71 247.52 277.24 245.27 279.33C244.35 280.18 243.42 280.8 242.7 281.25C242.33 281.97 241.83 282.85 241.13 283.75C240.61 284.42 240.06 285.02 239.51 285.6C239.36 285.75 239.21 285.9 239.06 286.07C238.41 287.22 235.39 292.74 234.94 293.71C232.42 299.18 224.43 300.98 221.83 301.18C221.56 301.21 221.26 301.21 220.91 301.21C219.66 301.21 217.76 301.01 215.62 300.61C215.45 305.75 214.8 307.4 214.52 308.15C213.22 311.6 209.65 314.17 207.63 315.39C206.38 316.16 204.73 316.89 203.01 317.64C201.99 318.09 200.96 318.51 200.21 318.91L199.04 319.56C198.78 319.7 198.57 319.82 198.33 319.95V350.45C207.5 352.55 217.03 353.67 226.82 353.67C238.73 353.67 250.24 352.02 261.15 348.95V277.14L320.98 311.7C335.04 296.14 345.3 277.12 350.3 256.07L296.12 224.81H296.1Z" fill="#E30613"/>
<path d="M313.59 163.75C313.59 163.75 313.66 163.73 313.69 163.7C315.61 162.63 323.75 157.81 330 153.14C327.5 149.59 324.81 146.2 321.91 142.95C318.31 147.54 313.69 152.61 311.95 153.79C309.8 155.26 308.13 157.19 304.63 159.03C301.16 160.88 291.99 161.78 290.82 162C289.65 162.22 281.48 161.75 272.74 162.82C264.02 163.87 251.99 167.96 248.22 167.39C244.45 166.79 241.45 164.07 240.08 161.2C238.68 158.33 241.53 154.13 243.13 152.83C243.58 152.46 246.3 148.41 250.15 144.32C253.99 140.22 267.73 123.62 273.25 115.68C274.32 114.13 275.57 112.26 276.92 110.26C275.32 109.56 273.67 108.89 272.03 108.26C265.59 117.55 259.1 127.06 257.1 129.63C253.63 134.07 246.46 141.92 244.19 144.14C242.12 146.14 241.37 146.19 238.57 149.13C236.85 148.61 231.85 146.86 229.66 145.81C227.14 144.61 226.16 144.21 224.62 144.64C223.07 145.09 218.35 146.99 216.98 151.18C215.58 155.35 216.96 163.44 217.15 165.66C214.75 167.71 210.31 170.75 206.86 174.62C203.41 178.49 197.45 186.23 195.2 189.85C192.95 193.45 189.16 198.74 186.81 201.29C184.46 203.81 183.34 204.99 182.44 206.23C181.57 207.48 180.02 212.27 179.69 214.25C179.39 216.22 179.49 216.97 179.29 218.12C178.77 221.02 178.87 224.51 177.97 228.86C177.72 230.06 175.37 236.43 176.37 239.07C173.57 241.42 171.43 243.21 168.88 245.14C166.31 247.06 160.94 251.71 156.49 254.95C152.05 258.2 141.86 264.11 132.69 268.48C124.35 272.45 117.81 275.22 111.14 278.84C111.89 280.59 112.71 282.29 113.59 283.98C113.74 284.3 113.91 284.65 114.09 284.98C128.72 276.96 144.73 269 152.29 263.81C161.43 257.57 173.69 246.46 176.59 246.46H176.69C180.76 246.83 184.78 247.81 186.75 250.93C187.92 252.8 187.55 255.85 191.39 256.15C192.71 256.25 198.43 255.05 199.68 254.13C202.68 251.91 206.42 245.99 206.6 241.87C206.77 237.73 204.43 232.41 202.93 229.66C201.43 226.91 200.63 226.06 200.28 225.37C201.53 224.17 202 222.47 204.17 220.15C206.32 217.85 212.51 212.61 218.6 206.97C224.69 201.33 231.16 193.84 234.41 187.02C229.99 191.41 225.82 196.73 223.62 197.16C221.42 197.61 218.3 190.94 219.75 184.85C220.95 179.83 224.42 181.18 222.1 163.23C222.03 162.71 220.95 157.56 220.78 156.94C220.61 156.32 220.23 152.3 222.1 150.72C224.3 148.85 227.57 148.27 228.47 148.4C229.19 148.5 232.96 150.35 234.94 151.52C234.77 153.74 235.81 158.99 235.71 159.11C235.59 159.26 233.81 155.94 233.49 156.24C233.27 156.46 235.11 163.71 237.79 165.8C241.36 168.62 242.46 170.22 246.38 170.84C255.14 172.24 263.71 170.59 266.86 170.14C269.98 169.67 277.25 170.26 276.97 168.57C275.42 168.57 271.08 168.47 268.68 168.59C266.28 168.74 261.34 168.84 260.29 168.84C259.22 168.87 257.89 168.64 258.77 168.27C259.67 167.9 272.1 165.27 274.78 164.97C277.45 164.65 283.89 164.8 291.49 164.57C299.08 164.35 306.25 165.39 308.27 165.37C310.17 166.07 312.76 167.92 313.79 170.76C314.19 171.86 314.81 173.06 314.89 173.63C314.96 174.2 314.27 174.43 313.44 174.6C312.62 174.77 309.05 172.4 306.87 172.95C301.53 174.27 296.21 181.79 292.59 183.11C289.22 184.33 288.37 186.11 288.39 187.65C288.42 189 289.64 189.32 289.79 189.45C288.14 189.82 286.39 190.67 285.22 191.3C284.35 191.77 283.05 192.7 281.95 193.15C280.88 193.6 280.73 193.7 281 194.07C281.3 194.42 283.32 194.79 284.6 195.52C285.87 196.22 286.17 198.19 285.25 199.14C280.13 204.36 281.6 207.73 278.41 211.95C271.97 220.44 268.2 222.21 264.88 221.31C264.46 221.19 265.25 217.39 265.73 214.42C266.2 211.42 266 210.6 265.61 210.77C265.21 210.97 264.54 213.22 264.19 214.14C262.74 217.94 260.47 217.99 257.67 221.88C257 222.83 251.78 230.99 245.78 232.22C244.28 232.52 242.13 231.02 240.91 230.35C239.69 229.68 238.39 231.42 235.17 233.97C233.8 235.07 232.65 235.22 230.08 237.87C222.54 245.61 228.11 244.61 212.83 251.68C210.63 252.7 209.26 253.35 206.64 256.4C205.29 258 202.97 262.12 195.23 266.41C193.23 267.53 193.66 267.86 194.71 267.88C202.33 268.05 206.2 263.91 208.29 262.36C210.39 260.81 210.89 262.26 211.61 263.61C210.69 265.56 209.69 272.02 209.39 272.95C209.12 273.87 207.74 275.12 206.09 276.55C204.44 278 197.73 282.69 195.45 284.04C193.2 285.36 181.94 296.35 178 299.5C171.68 304.54 157.82 312.29 148.91 318.43C147.96 319.08 145.81 320.43 143.19 322.05C148.03 326.34 153.23 330.27 158.7 333.76C164.87 328.02 174.41 319.25 176.88 317.28C180.13 314.68 182.2 313.03 182.82 311.46C183.79 312.16 186.99 314.51 187.79 314.83C188.59 315.13 190.81 315.18 191.73 314.88C192.68 314.56 194.78 313.36 196.67 312.33C198.59 311.28 202.19 309.96 203.76 308.98C205.36 308.01 207.16 306.51 207.56 305.46C207.96 304.41 208.13 301.66 208.18 299.62C208.25 297.57 207.01 291.53 206.53 289.46C210.15 292.13 219.02 293.88 221.29 293.71C223.54 293.54 227.53 291.96 228.16 290.61C228.76 289.29 232.03 283.34 232.73 282.15C233.43 280.95 234.4 280.28 235.25 279.18C236.1 278.08 236.5 276.83 236.95 276.16C237.42 275.49 238.85 275.11 240.22 273.84C241.59 272.57 242.04 270.62 242.57 269.6C243.09 268.55 243.87 267.08 245.57 266.3C247.27 265.55 249.91 263.63 250.69 262.58C251.49 261.53 251.26 261.31 252.11 259.53C252.93 257.76 257 254.01 257.4 253.36C257.8 252.74 258.17 251.09 258.1 250.21C257.88 247.64 257.3 245.67 257.08 244.42C258.9 244.62 262.15 242.3 263.67 241.22C265.22 240.12 269.94 236.28 271.19 235.55C272.44 234.85 273.64 234.83 275.41 234.3C277.21 233.78 279.18 232.68 280.55 231.3C281.95 229.9 285.22 223.48 286.39 222.34C287.56 221.19 293.61 218.24 294.18 216.15C294.75 214.05 295.2 208.38 295.58 207.39C295.95 206.39 298.73 205.44 299.18 204.97C299.95 204.17 300.33 202.72 300.5 202.3C300.92 201.25 302.1 200.45 302.27 199.6C302.44 198.78 302.02 195.53 301.3 193.93C300.6 192.33 299.43 190.11 299.68 187.46C300.73 187.11 306.35 186.89 308.89 186.56C311.43 186.23 312.44 186.34 315.28 185.01C320.02 182.81 319.3 180.12 319.57 175.8C319.67 174.13 316.42 167.66 315.8 166.69C315.13 165.62 314.3 164.49 313.63 163.74L313.59 163.75ZM213.23 181.26C212.43 182.86 212.16 184.66 211.81 185.88C211.19 188.05 210.81 186.75 210.14 189.63C209.44 192.48 209.87 195.6 210.76 200.19C211.23 202.56 210.39 203.79 209.69 205.21C208.67 207.31 205.79 209.73 204.32 212.28C203.85 213.13 202.05 216.57 201.37 217.25C200.7 217.95 199.1 222.12 198.4 222.77C197.68 223.42 195.55 223.84 193.93 223.89C195.3 224.76 198.05 227.51 199.82 230.61C203.12 236.33 202.82 239.72 202.77 241.25C202.75 242.77 202.45 245 199.52 247.77C196.62 250.54 195.45 250.72 194.58 250.34C193.68 249.97 193.06 246.52 192.76 245.62C192.44 244.72 192.14 244.15 191.61 243.52C191.09 242.92 191.04 242.37 191.68 241.22C192.58 239.7 193.73 236.58 194.4 236.13C195.6 235.41 198.07 235.93 200.09 237.1C199.24 235.93 198.19 234.53 195.9 233.8C194.68 233.45 192.08 233.53 190.51 235.3C189.34 236.6 187.39 240.07 187.16 240.14C186.94 240.19 186.01 240.21 182.96 238.14C182.04 237.52 181.06 236.94 181.29 235.39C182.19 229.02 184.54 228.62 182.96 224.53C182.39 223.06 182.61 217.14 184.86 210.87C185.21 209.9 186.88 206.8 188.13 205.4C189.4 203.98 194.15 202 195.7 200.28C197.97 197.76 198.57 195.21 198.95 193.26C199.05 192.81 201.42 188.52 205.77 182.85C207.92 180.05 211.54 176.01 212.34 175.68C213.16 175.38 213.69 180.32 213.24 181.25L213.23 181.26ZM197.45 291.55C197.77 290.85 201.37 287.78 201.89 288C202.46 288.22 202.71 288 203.59 288.6C204.14 289.7 204.36 293.77 204.09 295.77C203.79 297.74 202.14 298.24 201.02 298.52C199.87 298.79 198.3 297.65 197.95 295.9C197.58 294.13 197.15 292.25 197.45 291.56V291.55ZM203.47 304.66C201.82 306.26 201.8 305.83 200.12 306.48C198.45 307.13 196.75 308.35 195 308.4C193.28 308.45 192.2 307.4 192.2 305.8C192.2 304.2 192.13 301.21 192.72 300.28C193.29 299.38 194.62 297.61 195.37 296.93C196.57 300.48 199.09 301.32 201.16 300.75C203.23 300.18 204.41 299.15 204.98 297.38C204.96 298.98 205.13 303.02 203.46 304.65L203.47 304.66ZM236.43 271.1C235.91 272.02 233.33 274.8 232.18 275.22C229.03 276.39 225.41 276.34 222.87 274.77C220.35 273.22 219.92 272.25 219.92 270.97C219.92 269.69 219.62 266.28 219.12 264.63C218.65 263.01 217.57 261.26 217.82 259.71C218.07 258.19 219.07 254.42 219.79 253.89C220.51 253.36 220.76 253.47 221.19 253.19C221.61 252.89 223.84 250.84 224.31 250.59C224.78 250.34 226.38 249.89 227.43 251.04C228.48 252.21 230.48 255.68 230.6 256.16C230.72 256.63 230.75 257.91 230.77 258.23C230.82 258.55 230.65 259.75 229.05 260.58C227.45 261.38 226.4 261.15 226.13 261.08C223.91 260.51 222.96 259.01 222.46 257.81C221.99 256.64 221.94 255.76 221.86 255.59C221.81 255.39 221.26 256.29 221.16 256.46C220.31 257.81 220.51 261.73 224.01 263.95C224.98 264.6 228.43 264.57 229.88 263.85C230.65 263.45 231.2 263.08 231.65 262.58C232.32 261.83 233.07 260.46 233.57 261.33C233.97 262.03 234.32 263.95 234.34 264.53C234.36 265.68 235.19 266.23 235.76 267.35C236.31 268.47 236.93 270.2 236.41 271.1H236.43ZM246.52 257.79C245.82 258.94 244 260.39 241.45 260.46C238.9 260.51 238.38 259.01 237.75 258.54C237.1 258.07 233.11 255.79 231.41 250.3C229.69 244.83 231.04 242.18 232.26 240.54C233.48 238.92 235.81 235.67 238.25 235.4C240.7 235.13 241.12 236.25 240.85 236.72C240.6 237.22 240.3 238.17 239.4 238.79C238.5 239.44 235.28 242.41 233.23 242.26C233.53 248.7 235.9 249.83 236.85 249.98C237.8 250.1 239.47 249.78 240.07 249.61C236 248.11 234.88 243.87 235.85 243.64C237.15 243.32 240.77 240.77 241.57 240.34C242.37 239.92 242.42 243.31 241.94 245.06C241.47 246.81 241.62 246.86 241.96 246.93C242.43 246.48 242.93 246.11 243.71 246.51C244.48 246.88 245.58 248.26 245.81 249.43C246.03 250.6 246.43 251.45 246.36 252.15C246.26 252.87 247.21 256.64 246.51 257.79H246.52ZM244.72 239.41C244.74 238.81 245.72 237.26 246.27 237.11C246.82 236.94 248.27 236.59 248.74 236.76C249.21 236.93 251.21 238.11 251.31 240.01C251.43 241.91 249.61 243.18 247.74 243.28C246.74 242.31 246.19 240.91 244.72 239.41ZM255.46 249.83C255.01 252.1 254.26 252.53 253.64 253.38C253.02 254.23 251.74 255.38 249.74 255.68C249.32 254.08 249.29 249.84 249.49 248.94C249.71 248.07 251.59 242.02 252.09 241.9C252.59 241.78 253.04 241.88 253.19 241.98C253.34 242.1 253.39 243.1 253.59 243.33C253.81 243.55 255.91 247.57 255.46 249.85V249.83ZM285.15 215.62C283.9 216.29 282.18 218.47 280.73 220.36C279.28 222.28 275.79 225.08 270.74 227.53C272.11 226.88 273.66 225.03 275.06 223.81C276.48 222.61 279.25 218.14 281.25 216.19C283.22 214.22 285.32 213.69 287.57 213.37C287.57 213.37 286.37 214.94 285.15 215.62ZM296.13 201.28C294.28 201.75 292.56 200.63 291.29 201.11C290.04 201.58 284.42 206.43 283.85 206.58C283.28 206.7 285.67 202.44 287.05 200.76C288.8 198.66 289.57 197.24 291.47 196.02C293.37 194.82 294.42 194.2 294.84 193.7C295.26 193.2 295.54 192.45 293.44 190.78C295.14 191.25 295.44 191.65 296.31 191.78C297.18 191.93 297.58 192.6 298.08 194.1C298.58 195.62 299.63 197.07 299.38 197.82C299.11 198.57 297.98 200.82 296.13 201.29V201.28Z" fill="#1D1D1B"/>
<path d="M226.8 9.66C106.9 9.66 9.68994 106.9 9.68994 226.8C9.68994 346.7 106.9 443.94 226.81 443.94C346.72 443.94 443.95 346.73 443.95 226.8C443.95 106.87 346.73 9.66 226.8 9.66ZM226.8 362.42C151.91 362.42 91.1899 301.72 91.1899 226.81C91.1899 151.9 151.92 91.2 226.8 91.2C301.68 91.2 362.41 151.93 362.41 226.81C362.41 301.69 301.71 362.42 226.8 362.42Z" fill="#27348B"/>
<path d="M146.28 360.03C145.94 358.61 145.34 357.3 144.48 356.13C143.62 354.95 142.62 353.97 141.46 353.19C140.31 352.41 139.02 351.84 137.61 351.48C136.2 351.12 134.75 351.04 133.26 351.23C131.84 351.41 130.45 351.9 129.08 352.72C127.72 353.53 126.47 354.78 125.33 356.46L111.13 377.46C110.05 379.06 109.37 380.66 109.1 382.27C108.83 383.88 108.86 385.39 109.2 386.81C109.6 388.22 110.23 389.52 111.09 390.69C111.95 391.87 112.96 392.85 114.11 393.63C115.27 394.41 116.55 394.98 117.96 395.34C119.37 395.7 120.79 395.79 122.21 395.61C123.7 395.42 125.13 394.9 126.52 394.05C127.91 393.2 129.15 391.97 130.23 390.37L144.43 369.37C145.56 367.69 146.25 366.07 146.5 364.51C146.75 362.94 146.67 361.45 146.27 360.04L146.28 360.03ZM138.74 365.51L124.54 386.51C123.61 387.89 122.54 388.64 121.34 388.78C120.14 388.91 119.01 388.63 117.97 387.92C116.93 387.22 116.25 386.28 115.92 385.11C115.6 383.94 115.9 382.67 116.83 381.29L131.03 360.29C131.96 358.91 133.03 358.16 134.23 358.02C135.43 357.88 136.56 358.17 137.6 358.87C138.64 359.58 139.33 360.51 139.65 361.68C139.97 362.85 139.67 364.12 138.74 365.5V365.51Z" fill="white"/>
<path d="M123.4 340.52L110.23 354.21C109.94 354.51 109.47 354.52 109.17 354.23L107.14 352.28C106.9 352.05 106.84 351.7 106.99 351.41L116.08 333.18C116.23 332.89 116.16 332.53 115.93 332.31L111.83 328.37C111.46 328.01 110.85 328.13 110.63 328.59L101.49 348.04C101.34 348.35 100.99 348.51 100.65 348.43C98.4501 347.94 96.4301 348.07 94.5901 348.83C92.5901 349.65 90.6101 351.08 88.6401 353.12C82.1301 359.89 81.7901 366.09 87.6201 371.69L95.0501 378.83C95.3501 379.12 95.8201 379.11 96.1101 378.81L128.34 345.29C128.63 344.99 128.62 344.52 128.32 344.23L124.44 340.5C124.14 340.21 123.67 340.22 123.38 340.52H123.4ZM95.6601 369.38C95.3701 369.68 94.9001 369.69 94.6001 369.4L92.5601 367.44C90.8401 365.79 90.1101 364.21 90.3701 362.72C90.5501 361.95 90.9001 361.19 91.4501 360.43C91.9901 359.67 92.6801 358.86 93.5201 357.98C94.3601 357.11 95.1501 356.38 95.8901 355.81C96.6301 355.24 97.3401 354.85 98.0401 354.65C98.7701 354.48 99.5101 354.52 100.26 354.77C101.01 355.03 101.83 355.57 102.7 356.42L104.98 358.61C105.28 358.9 105.29 359.37 105 359.67L95.6701 369.38H95.6601Z" fill="white"/>
<path d="M105.33 329.97C106.08 328.57 106.5 327.14 106.59 325.67C106.74 324.22 106.61 322.79 106.19 321.4C105.77 320 105.15 318.75 104.31 317.63C103.48 316.51 102.46 315.55 101.24 314.74C100.03 313.94 98.69 313.37 97.22 313.06C95.82 312.76 94.34 312.76 92.78 313.08C91.22 313.4 89.63 314.16 88.01 315.36L76.49 323.92C76.16 324.17 76.09 324.64 76.34 324.97L82.8 333.67C83.05 334 83.52 334.07 83.85 333.83L87.52 331.11C87.85 330.86 87.92 330.39 87.68 330.06L85.32 326.88C85.07 326.55 85.14 326.08 85.48 325.83L92.13 320.89C93.47 319.9 94.72 319.54 95.9 319.81C97.08 320.08 98.05 320.72 98.8 321.73C99.55 322.74 99.89 323.85 99.8 325.06C99.72 326.27 99.01 327.37 97.68 328.36L77.33 343.47C75.99 344.46 74.74 344.82 73.56 344.55C72.38 344.28 71.41 343.64 70.66 342.63C69.91 341.62 69.58 340.51 69.66 339.3C69.74 338.09 70.45 336.99 71.78 336L73.73 334.55L69.63 329.03L67.68 330.48C66.13 331.63 64.96 332.92 64.17 334.35C63.38 335.77 62.91 337.22 62.76 338.67C62.67 340.14 62.84 341.57 63.26 342.96C63.68 344.35 64.31 345.61 65.14 346.73C65.97 347.85 66.99 348.81 68.21 349.61C69.42 350.42 70.73 350.97 72.13 351.28C73.6 351.59 75.12 351.58 76.71 351.23C78.3 350.89 79.88 350.14 81.43 348.99L101.78 333.88C103.4 332.68 104.59 331.37 105.35 329.98L105.33 329.97Z" fill="white"/>
<path d="M92.96 302.29L84.04 304.83C83.7 304.93 83.33 304.77 83.17 304.45L79.48 297.2C79.32 296.88 79.4 296.49 79.69 296.27L86.99 290.55C87.27 290.33 87.36 289.94 87.2 289.62L84.78 284.87C84.56 284.44 84 284.33 83.64 284.63L46.91 314.98C46.64 315.2 46.56 315.58 46.72 315.9L48.77 319.94C48.93 320.25 49.28 320.41 49.62 320.33L95.77 308.49C96.23 308.37 96.47 307.85 96.25 307.42L93.83 302.67C93.67 302.35 93.3 302.19 92.96 302.29ZM60.03 311.62L73.29 301.28C73.66 300.99 74.2 301.11 74.42 301.53L76.71 306.04C76.92 306.46 76.71 306.97 76.25 307.1L60.03 311.62Z" fill="white"/>
<path d="M82.2 276.87C82.08 276.47 81.66 276.25 81.27 276.37L54.33 284.38L78.49 266.27C78.74 266.08 78.8501 265.75 78.7601 265.45L77.25 260.47C77.1301 260.07 76.71 259.85 76.32 259.97L31.81 273.43C31.41 273.55 31.19 273.97 31.31 274.36L32.87 279.51C32.99 279.91 33.41 280.13 33.8 280.01L60.81 271.98L36.55 289.98C36.3 290.17 36.19 290.5 36.28 290.8L37.82 295.9C37.94 296.3 38.36 296.52 38.75 296.4L83.2601 282.93C83.6601 282.81 83.8801 282.39 83.7601 282L82.2 276.85V276.87Z" fill="white"/>
<path d="M74.7204 248.753L28.8421 256.331C28.4335 256.399 28.1569 256.785 28.2244 257.193L29.1012 262.501C29.1688 262.91 29.5548 263.187 29.9635 263.119L75.8417 255.541C76.2504 255.473 76.527 255.087 76.4594 254.678L75.5826 249.37C75.5151 248.962 75.1291 248.685 74.7204 248.753Z" fill="white"/>
<path d="M33.63 235.68L68.62 246.23C68.7 246.26 68.79 246.27 68.88 246.26L74.06 245.96C74.47 245.94 74.79 245.58 74.77 245.17L73.69 226.27C73.67 225.86 73.31 225.54 72.9 225.56L67.93 225.85C67.52 225.87 67.2 226.23 67.23 226.64L67.88 238.01C67.91 238.53 67.41 238.92 66.91 238.77L31.3 227.99C31.22 227.96 31.13 227.95 31.04 227.96L26.47 228.22C26.06 228.24 25.74 228.6 25.77 229.01L26.81 247.23C26.83 247.64 27.19 247.96 27.6 247.94L32.56 247.66C32.97 247.64 33.29 247.28 33.26 246.87L32.66 236.44C32.63 235.92 33.13 235.53 33.62 235.68H33.63Z" fill="white"/>
<path d="M73.47 218.07L64.59 215.39C64.25 215.29 64.03 214.95 64.06 214.6L64.87 206.5C64.91 206.14 65.19 205.86 65.54 205.83L74.78 204.96C75.14 204.93 75.42 204.64 75.45 204.29L75.98 198.99C76.03 198.51 75.62 198.11 75.14 198.17L27.84 203.89C27.49 203.93 27.22 204.21 27.18 204.56L26.73 209.07C26.7 209.42 26.91 209.75 27.24 209.86L72.48 224.8C72.94 224.95 73.41 224.64 73.46 224.16L73.99 218.86C74.03 218.5 73.8 218.17 73.46 218.07H73.47ZM57.77 212.46C57.72 212.93 57.26 213.24 56.81 213.1L40.71 208.28V208.15L57.46 206.6C57.93 206.56 58.32 206.95 58.27 207.42L57.77 212.45V212.46Z" fill="white"/>
<path d="M79.98 182.32C79.74 180.88 79.25 179.55 78.51 178.33C77.77 177.1 76.83 176.05 75.7 175.16C74.57 174.27 73.28 173.63 71.85 173.25L68.98 172.48L67.19 179.12L69.47 179.73C70.38 179.98 71.1 180.31 71.64 180.73C72.18 181.15 72.57 181.61 72.81 182.09C73.04 182.62 73.16 183.15 73.18 183.69C73.2 184.23 73.15 184.72 73.03 185.15C72.62 186.67 71.88 187.6 70.81 187.94C69.74 188.28 68.53 188.27 67.19 187.9L43.5 181.5C41.94 181.08 40.72 180.46 39.85 179.64C38.98 178.82 38.76 177.59 39.21 175.94C39.55 174.68 40.3 173.82 41.45 173.34C42.6 172.86 43.83 172.8 45.13 173.15L47.34 173.75L49.13 167.11L46.53 166.41C44.93 165.98 43.36 165.85 41.85 166.02C40.34 166.19 38.95 166.62 37.69 167.31C35.12 168.71 33.42 170.97 32.57 174.1C32.14 175.7 32.01 177.24 32.2 178.71C32.39 180.18 32.82 181.52 33.52 182.73C34.22 183.94 35.14 184.99 36.3 185.86C37.46 186.73 38.8 187.37 40.32 187.78L65.83 194.68C67.96 195.26 69.79 195.39 71.34 195.09C72.89 194.79 74.24 194.23 75.39 193.43C76.54 192.62 77.46 191.61 78.16 190.41C78.86 189.2 79.38 187.97 79.72 186.71C80.12 185.23 80.2 183.78 79.96 182.34L79.98 182.32Z" fill="white"/>
<path d="M41.7435 148.778L39.7142 153.761C39.5579 154.145 39.7423 154.582 40.1259 154.739L83.1911 172.278C83.5747 172.434 84.0124 172.25 84.1686 171.866L86.1979 166.884C86.3542 166.5 86.1698 166.062 85.7862 165.906L42.721 148.367C42.3374 148.21 41.8997 148.395 41.7435 148.778Z" fill="white"/>
<path d="M84.69 148.78C85.19 149.41 85.5 150.04 85.62 150.67C85.78 151.32 85.8 151.92 85.68 152.46C85.56 153.01 85.4 153.46 85.21 153.82C84.86 154.45 84.39 154.98 83.78 155.38C83.17 155.79 82.53 156.09 81.86 156.29L82.92 162.28C83 162.72 83.43 163.01 83.86 162.88C84.89 162.56 86.02 162.07 87.25 161.42C88.8 160.6 90.1 159.23 91.16 157.29C92.06 155.63 92.58 154.03 92.71 152.49C92.84 150.95 92.67 149.46 92.22 148.04C91.28 145.17 89.37 142.95 86.49 141.38L54.96 124.16C54.6 123.96 54.14 124.1 53.94 124.46L51.36 129.18C51.16 129.54 51.3 130 51.66 130.2L82.36 146.97C83.43 147.55 84.21 148.16 84.71 148.79L84.69 148.78Z" fill="white"/>
<path d="M100 140.29L93.79 133.4C93.55 133.13 93.53 132.74 93.75 132.45L98.63 125.94C98.84 125.65 99.23 125.56 99.55 125.71L107.91 129.74C108.23 129.9 108.62 129.8 108.83 129.51L112.02 125.25C112.31 124.87 112.17 124.31 111.73 124.12L68.29 104.53C67.97 104.39 67.59 104.48 67.38 104.76L64.66 108.39C64.45 108.67 64.46 109.06 64.69 109.33L95.67 145.54C95.98 145.9 96.55 145.89 96.84 145.5L100.03 141.24C100.24 140.95 100.23 140.56 99.99 140.29H100ZM89.47 127.36C89.19 127.74 88.63 127.76 88.32 127.41L77.03 114.95L77.11 114.84L92.23 122.18C92.65 122.39 92.78 122.93 92.5 123.3L89.46 127.35L89.47 127.36Z" fill="white"/>
<path d="M119.61 57.09C119.31 57.27 119.18 57.64 119.29 57.97L135.09 103.75L131.64 99.71C131.37 99.4 130.9 99.36 130.58 99.63L121.92 107.03C121.52 107.37 120.91 107.21 120.73 106.72L107.78 71.84C107.75 71.76 107.7 71.68 107.65 71.61L104.68 68.13C104.41 67.82 103.94 67.78 103.62 68.05L89.74 79.9C89.43 80.17 89.39 80.64 89.66 80.96L92.89 84.74C93.16 85.05 93.63 85.09 93.95 84.82L101.9 78.03C102.3 77.69 102.91 77.85 103.09 78.34L115.85 112.59C115.88 112.67 115.93 112.75 115.98 112.81L119.35 116.75C119.62 117.06 120.09 117.1 120.41 116.83L135.37 104.05L135.2 103.85L140.48 100.6C140.79 100.41 140.91 100.03 140.79 99.7L137.54 91.01C137.41 90.67 137.54 90.3 137.85 90.11L144.78 85.84C145.08 85.65 145.48 85.71 145.72 85.97L152.02 92.79C152.26 93.05 152.66 93.11 152.96 92.92L157.49 90.13C157.9 89.88 157.97 89.31 157.63 88.97L124.4 54.82C124.16 54.57 123.77 54.52 123.47 54.7L119.61 57.08V57.09ZM128.82 67.65L140.2 80.02C140.52 80.37 140.44 80.92 140.04 81.16L135.73 83.82C135.33 84.07 134.8 83.89 134.64 83.45L128.71 67.72L128.82 67.65Z" fill="white"/>
<path d="M174.34 38.68L172.73 33.97C172.6 33.58 172.17 33.37 171.78 33.5L151.64 40.39C151.25 40.52 151.04 40.95 151.17 41.34L152.78 46.05C152.91 46.44 153.34 46.65 153.73 46.52L159.84 44.43C160.23 44.3 160.66 44.5 160.79 44.9L173.74 82.78C173.87 83.17 174.3 83.38 174.69 83.25L179.78 81.51C180.17 81.38 180.38 80.95 180.25 80.56L167.3 42.68C167.17 42.29 167.37 41.86 167.77 41.73L173.88 39.64C174.27 39.51 174.48 39.08 174.35 38.69L174.34 38.68Z" fill="white"/>
<path d="M222.48 26.79L212.77 71.63C212.62 72.31 211.72 72.44 211.38 71.83L201.79 54.49C201.62 54.19 201.7 53.81 201.96 53.58C203.65 52.08 204.73 50.37 205.19 48.44C205.7 46.34 205.7 43.89 205.2 41.11C203.53 31.87 198.72 27.96 190.75 29.4L180.61 31.23C180.2 31.3 179.93 31.69 180.01 32.1L188.27 77.87C188.34 78.28 188.73 78.55 189.14 78.47L194.43 77.51C194.84 77.44 195.11 77.05 195.03 76.64L191.65 57.94C191.58 57.53 191.85 57.14 192.25 57.07L195.02 56.57C195.34 56.51 195.67 56.67 195.82 56.96L205.26 75.01C205.41 75.3 205.73 75.46 206.06 75.4L212.33 74.27C212.33 74.27 212.42 74.26 212.46 74.26L218.44 74.22C218.8 74.22 219.1 73.96 219.17 73.61L220.9 64.49C220.97 64.14 221.27 63.88 221.63 63.88L229.77 63.83C230.13 63.83 230.44 64.08 230.51 64.43L232.35 73.52C232.42 73.87 232.73 74.12 233.09 74.12L238.42 74.08C238.9 74.08 239.25 73.63 239.14 73.16L228.45 26.73C228.37 26.39 228.07 26.15 227.71 26.15L223.18 26.18C222.83 26.18 222.53 26.43 222.45 26.77L222.48 26.79ZM198.48 47.81C198.19 48.5 197.73 49.08 197.08 49.54C196.43 50 195.51 50.34 194.32 50.55L191.21 51.11C190.8 51.18 190.41 50.91 190.34 50.51L187.95 37.25C187.88 36.84 188.15 36.45 188.55 36.38L191.33 35.88C193.67 35.46 195.38 35.79 196.44 36.87C196.96 37.46 197.36 38.2 197.66 39.08C197.96 39.96 198.21 41 198.43 42.19C198.65 43.38 198.77 44.45 198.8 45.38C198.83 46.31 198.72 47.12 198.48 47.8V47.81ZM223.11 57.42C222.64 57.42 222.28 57 222.37 56.53L225.46 40.01L228.9 56.49C228.99 56.95 228.64 57.38 228.17 57.39L223.11 57.43V57.42Z" fill="white"/>
<path d="M268.38 36.57C267.95 35 267.29 33.64 266.38 32.49C265.42 31.38 264.3 30.47 263.03 29.76C261.75 29.05 260.43 28.59 259.06 28.36C257.68 28.14 256.28 28.16 254.85 28.43C253.42 28.7 252.09 29.22 250.88 29.97C249.61 30.77 248.53 31.85 247.63 33.2C246.73 34.55 246.12 36.19 245.81 38.1L241.76 63.12C241.44 65.12 241.49 66.88 241.93 68.4C242.37 69.93 243.06 71.25 244.02 72.36C244.93 73.51 246.01 74.44 247.29 75.14C248.57 75.85 249.89 76.31 251.26 76.54C252.64 76.76 254.04 76.74 255.47 76.47C256.9 76.2 258.25 75.67 259.52 74.87C260.73 74.11 261.79 73.08 262.69 71.76C263.58 70.45 264.19 68.79 264.52 66.8L266.82 52.63C266.89 52.22 266.61 51.84 266.2 51.77L255.5 50.04C255.09 49.97 254.71 50.25 254.64 50.66L253.91 55.17C253.84 55.58 254.12 55.96 254.53 56.03L258.44 56.66C258.85 56.73 259.13 57.11 259.06 57.52L257.74 65.7C257.47 67.34 256.82 68.48 255.79 69.1C254.75 69.73 253.61 69.95 252.37 69.74C251.13 69.54 250.11 68.98 249.33 68.05C248.54 67.13 248.29 65.85 248.55 64.2L252.61 39.18C252.88 37.54 253.52 36.4 254.56 35.77C255.59 35.14 256.74 34.93 257.98 35.13C259.22 35.33 260.24 35.9 261.02 36.82C261.8 37.74 262.06 39.02 261.8 40.67L261.41 43.07L268.2 44.17L268.59 41.77C268.9 39.86 268.84 38.12 268.41 36.55L268.38 36.57Z" fill="white"/>
<path d="M288.72 36.55L263.83 77.18C263.58 77.59 263.77 78.12 264.23 78.28L269.27 80.01C269.61 80.13 269.98 79.99 270.16 79.68L274.8 71.64C274.98 71.33 275.35 71.19 275.69 71.31L283.39 73.95C283.73 74.07 283.94 74.41 283.89 74.76L282.63 83.95C282.58 84.3 282.79 84.64 283.13 84.76L288.17 86.49C288.62 86.65 289.1 86.34 289.16 85.86L294.4 38.5C294.44 38.15 294.23 37.82 293.9 37.71L289.62 36.24C289.29 36.13 288.92 36.26 288.74 36.56L288.72 36.55ZM284 67.31L279.21 65.67C278.76 65.52 278.57 65 278.8 64.59L287.17 50.01L287.3 50.05L284.98 66.7C284.91 67.17 284.44 67.46 284 67.31Z" fill="white"/>
<path d="M305 95.07C304.95 95.38 305.1 95.69 305.38 95.84L309.94 98.34C310.3 98.54 310.76 98.41 310.96 98.04L333.33 57.27C333.53 56.91 333.4 56.45 333.03 56.25L328.32 53.66C327.96 53.46 327.5 53.59 327.3 53.96L313.75 78.66L318.36 48.76C318.41 48.45 318.26 48.14 317.98 47.99L313.31 45.43C312.95 45.23 312.49 45.36 312.29 45.73L289.92 86.5C289.72 86.86 289.85 87.32 290.22 87.52L294.94 90.11C295.3 90.31 295.76 90.18 295.96 89.81L309.48 65.17L305.02 95.07H305Z" fill="white"/>
<path d="M327.07 99.65C326.37 100.04 325.69 100.24 325.06 100.26C324.39 100.31 323.8 100.23 323.28 100.02C322.76 99.81 322.34 99.58 322.02 99.33C321.45 98.89 321.02 98.33 320.71 97.66C320.41 96.99 320.21 96.31 320.12 95.62L314.04 95.68C313.6 95.68 313.24 96.07 313.3 96.51C313.45 97.58 313.74 98.77 314.18 100.09C314.73 101.75 315.88 103.26 317.61 104.62C319.1 105.79 320.59 106.55 322.09 106.93C323.59 107.31 325.08 107.39 326.56 107.18C329.54 106.72 332.05 105.2 334.07 102.62L356.22 74.33C356.47 74 356.42 73.53 356.09 73.28L351.86 69.96C351.53 69.7 351.06 69.76 350.81 70.09L329.25 97.64C328.5 98.6 327.77 99.27 327.07 99.66V99.65Z" fill="white"/>
<path d="M344.72 128.12L348.58 124.37C348.88 124.08 348.88 123.61 348.6 123.31L340.16 114.61C339.87 114.31 339.88 113.84 340.18 113.55L349.22 104.78C349.52 104.49 349.99 104.5 350.28 104.8L357.5 112.24C357.79 112.54 358.26 112.54 358.56 112.26L362.13 108.8C362.43 108.51 362.43 108.04 362.15 107.74L354.93 100.3C354.64 100 354.65 99.53 354.95 99.24L363.99 90.47C364.29 90.18 364.76 90.19 365.05 90.49L373.49 99.19C373.78 99.49 374.25 99.49 374.55 99.21L378.12 95.74C378.42 95.45 378.42 94.98 378.14 94.68L364.91 81.05C364.62 80.75 364.15 80.75 363.85 81.03L330.48 113.42C330.18 113.71 330.18 114.18 330.46 114.48L343.69 128.11C343.98 128.41 344.45 128.41 344.75 128.13L344.72 128.12Z" fill="white"/>
<path d="M391.787 113.968L352.985 139.593C352.639 139.821 352.544 140.286 352.772 140.632L355.737 145.121C355.965 145.467 356.431 145.562 356.776 145.334L395.579 119.709C395.924 119.481 396.02 119.016 395.791 118.67L392.827 114.181C392.598 113.835 392.133 113.74 391.787 113.968Z" fill="white"/>
<path d="M413.1 151.18C412.34 149.31 411.35 147.82 410.16 146.74C408.96 145.65 407.64 144.89 406.21 144.46C404.75 143.99 403.18 143.83 401.5 143.98C399.82 144.13 398.14 144.55 396.48 145.23C393.69 146.37 391.56 147.79 390.09 149.48C388.62 151.17 387.89 153.62 387.88 156.83V162.15C387.86 163.08 387.8 163.84 387.71 164.44C387.62 165.04 387.4 165.57 387.06 166.05C386.7 166.49 386.17 166.9 385.45 167.29C384.73 167.68 383.79 168.11 382.63 168.59C381.63 169 380.71 169.34 379.88 169.6C379.04 169.87 378.27 169.96 377.55 169.86C376.83 169.76 376.19 169.48 375.64 169C375.08 168.52 374.58 167.75 374.14 166.66C373.48 165.04 373.47 163.69 374.14 162.62C374.8 161.55 375.71 160.78 376.87 160.3L378.87 159.49L376.27 153.12L373.9 154.09C372.4 154.7 371.13 155.55 370.09 156.63C369.05 157.71 368.25 158.92 367.68 160.27C367.11 161.62 366.83 163.07 366.83 164.62C366.83 166.17 367.15 167.72 367.78 169.26C368.61 171.3 369.65 172.89 370.89 174.03C372.13 175.17 373.52 175.94 375.04 176.34C376.5 176.71 378.11 176.76 379.87 176.48C381.62 176.2 383.44 175.68 385.31 174.91C386.93 174.25 388.34 173.57 389.55 172.89C390.75 172.2 391.76 171.43 392.57 170.56C393.32 169.67 393.88 168.64 394.26 167.47C394.63 166.3 394.8 164.89 394.76 163.26L394.71 157.6C394.71 156.63 394.77 155.84 394.91 155.22C395.05 154.61 395.29 154.08 395.65 153.65C396.01 153.21 396.46 152.85 397.02 152.54C397.58 152.24 398.29 151.91 399.17 151.55C399.92 151.25 400.66 151.01 401.4 150.86C402.14 150.7 402.84 150.68 403.52 150.8C404.16 150.93 404.75 151.2 405.3 151.6C405.85 152 406.31 152.65 406.67 153.52C407.33 155.14 407.27 156.51 406.49 157.63C405.71 158.75 404.59 159.61 403.13 160.2L401.7 160.79L404.3 167.16L407.42 165.88C410 164.82 411.9 162.93 413.11 160.2C413.68 158.85 413.98 157.41 414.03 155.86C414.08 154.31 413.78 152.75 413.13 151.17L413.1 151.18Z" fill="white"/>
<path d="M374.7 188.72C374.79 189.12 375.19 189.38 375.6 189.28L393.15 185.3L393.93 188.72C394.5 191.22 395.38 193.14 396.59 194.48C397.79 195.82 399.27 196.78 401.01 197.35C402.46 197.85 403.93 198.06 405.44 197.97C406.94 197.88 408.74 197.6 410.85 197.12C413.65 196.49 415.83 195.76 417.37 194.95C418.92 194.14 420.17 193.02 421.14 191.6C422.11 190.19 422.67 188.72 422.84 187.21C423 185.7 422.88 184.02 422.46 182.18L420.34 172.85C420.25 172.45 419.85 172.19 419.44 172.29L374.09 182.58C373.69 182.67 373.43 183.07 373.53 183.48L374.72 188.73L374.7 188.72ZM414.63 180.43C415.03 180.34 415.43 180.59 415.53 180.99L416.15 183.74C416.45 185.06 416.48 186.11 416.24 186.9C416.01 187.69 415.55 188.35 414.89 188.87C414.22 189.39 413.4 189.79 412.43 190.05C411.45 190.32 410.42 190.58 409.32 190.83C408.14 191.1 407.06 191.31 406.08 191.46C405.1 191.61 404.24 191.59 403.5 191.39C402.72 191.19 402.05 190.77 401.49 190.12C400.92 189.46 400.49 188.45 400.18 187.1L399.45 183.88L414.63 180.44V180.43Z" fill="white"/>
<path d="M379.02 207.9L388.24 208.94C388.6 208.98 388.87 209.27 388.9 209.62L389.55 217.73C389.58 218.09 389.35 218.41 389.01 218.51L380.08 221.02C379.74 221.12 379.51 221.44 379.54 221.8L379.97 227.11C380.01 227.59 380.48 227.91 380.94 227.77L426.46 213.68C426.8 213.58 427.01 213.25 426.99 212.9L426.63 208.38C426.6 208.03 426.33 207.75 425.99 207.7L378.8 201.09C378.33 201.02 377.91 201.41 377.95 201.89L378.38 207.2C378.41 207.56 378.69 207.84 379.04 207.88L379.02 207.9ZM409.37 212.82L396.83 216.32C396.38 216.45 395.92 216.13 395.88 215.66L395.47 210.62C395.43 210.15 395.84 209.76 396.31 209.82L409.26 211.36C410.07 211.46 410.16 212.61 409.37 212.83V212.82Z" fill="white"/>
<path d="M426.48 239.58C425.91 238.07 425.09 236.79 424 235.74C422.92 234.65 421.6 233.79 420.03 233.16C418.46 232.53 416.78 232.13 414.99 231.98C411.99 231.72 409.45 232 407.37 232.84C405.29 233.67 403.52 235.52 402.05 238.37L399.61 243.1C399.18 243.92 398.78 244.58 398.42 245.06C398.06 245.55 397.62 245.93 397.1 246.2C396.58 246.43 395.92 246.55 395.11 246.57C394.3 246.59 393.26 246.55 392.01 246.44C390.93 246.35 389.96 246.23 389.1 246.09C388.23 245.95 387.5 245.67 386.91 245.26C386.32 244.85 385.88 244.3 385.6 243.62C385.32 242.94 385.23 242.02 385.33 240.86C385.48 239.11 386.1 237.91 387.17 237.26C388.24 236.61 389.4 236.34 390.66 236.45L392.81 236.64L393.4 229.79L390.85 229.57C389.24 229.43 387.72 229.6 386.3 230.09C384.88 230.58 383.61 231.29 382.49 232.23C381.37 233.17 380.46 234.33 379.75 235.71C379.05 237.09 378.62 238.61 378.47 240.27C378.28 242.46 378.47 244.35 379.06 245.94C379.64 247.52 380.52 248.84 381.69 249.89C382.82 250.89 384.23 251.67 385.92 252.22C387.61 252.77 389.46 253.14 391.47 253.31C393.22 253.46 394.78 253.51 396.16 253.45C397.54 253.39 398.79 253.16 399.91 252.76C400.99 252.31 401.96 251.65 402.82 250.78C403.68 249.91 404.47 248.73 405.19 247.26L407.73 242.2C408.17 241.33 408.59 240.66 408.99 240.18C409.39 239.7 409.85 239.34 410.37 239.12C410.88 238.89 411.46 238.77 412.09 238.76C412.72 238.75 413.51 238.78 414.45 238.86C415.25 238.93 416.02 239.06 416.75 239.26C417.48 239.46 418.12 239.76 418.67 240.17C419.17 240.57 419.58 241.08 419.89 241.7C420.2 242.31 420.31 243.09 420.23 244.03C420.08 245.78 419.4 246.97 418.19 247.61C416.98 248.25 415.6 248.5 414.03 248.37L412.49 248.23L411.9 255.08L415.26 255.37C418.04 255.61 420.59 254.79 422.92 252.92C424.04 251.98 424.97 250.83 425.72 249.48C426.47 248.12 426.92 246.6 427.07 244.89C427.25 242.88 427.05 241.11 426.48 239.59V239.58Z" fill="white"/>
<path d="M376.73 259.54L385.08 263.58C385.4 263.74 385.57 264.1 385.48 264.44L383.42 272.31C383.33 272.66 383.01 272.89 382.65 272.87L373.39 272.29C373.03 272.27 372.71 272.5 372.62 272.85L371.27 278C371.15 278.46 371.49 278.92 371.97 278.94L419.59 280.7C419.94 280.71 420.25 280.48 420.34 280.14L421.49 275.76C421.58 275.42 421.42 275.07 421.11 274.9L378.76 253.05C378.33 252.83 377.81 253.06 377.69 253.53L376.34 258.68C376.25 259.03 376.42 259.39 376.74 259.54H376.73ZM392.41 267.06L404.15 272.7C404.89 273.06 404.6 274.17 403.78 274.12L390.76 273.37C390.29 273.34 389.96 272.89 390.08 272.43L391.36 267.54C391.48 267.08 391.98 266.85 392.41 267.05V267.06Z" fill="white"/>
<path d="M366.77 289.52L405.87 316.43C406.26 316.7 406.8 316.54 406.98 316.1L409.21 310.83C409.35 310.49 409.23 310.1 408.92 309.91L384.61 294.4C383.9 293.94 384.37 292.84 385.19 293.04L413.17 299.86C413.53 299.95 413.89 299.76 414.04 299.42L416.27 294.15C416.45 293.71 416.19 293.22 415.73 293.12L369.21 283.71C368.86 283.64 368.51 283.82 368.37 284.15L366.48 288.61C366.34 288.94 366.45 289.32 366.75 289.52H366.77Z" fill="white"/>
<path d="M361.39 300.6L368.25 306.84C368.52 307.08 368.57 307.48 368.39 307.78L364.17 314.74C363.98 315.05 363.61 315.18 363.27 315.06L354.56 311.87C354.22 311.75 353.85 311.87 353.66 312.19L350.9 316.75C350.65 317.16 350.85 317.69 351.3 317.85L396.46 333.05C396.79 333.16 397.16 333.03 397.34 332.73L399.69 328.86C399.87 328.56 399.82 328.17 399.57 327.93L365.17 294.96C364.82 294.63 364.26 294.7 364.01 295.11L361.25 299.67C361.06 299.98 361.12 300.37 361.39 300.61V300.6ZM374.29 312.26L383.89 321.08C384.49 321.64 383.89 322.62 383.12 322.33L370.9 317.83C370.46 317.67 370.27 317.14 370.52 316.74L373.14 312.42C373.39 312.02 373.94 311.94 374.29 312.26Z" fill="white"/>
<path d="M345.42 324.36L363.38 340.15C364.01 340.7 363.4 341.71 362.62 341.41L338.31 332.06C338.02 331.95 337.69 332.03 337.48 332.26L334.05 336.17C333.78 336.48 333.81 336.95 334.12 337.23L369.05 367.93C369.36 368.2 369.83 368.17 370.11 367.86L373.66 363.82C373.93 363.51 373.9 363.04 373.59 362.77L355.69 346.89C355.06 346.33 355.69 345.32 356.46 345.63L380.6 355.17C380.89 355.29 381.23 355.21 381.44 354.97L384.96 350.96C385.23 350.65 385.2 350.18 384.89 349.9L349.96 319.21C349.65 318.94 349.18 318.97 348.9 319.28L345.35 323.32C345.08 323.63 345.11 324.1 345.42 324.38V324.36Z" fill="white"/>
<path d="M329.01 352.65C328.78 351.87 328.73 351.18 328.86 350.55C328.96 349.89 329.16 349.33 329.48 348.86C329.79 348.4 330.11 348.04 330.42 347.78C330.98 347.32 331.61 347.02 332.33 346.87C333.05 346.72 333.75 346.67 334.45 346.74L335.71 340.8C335.8 340.37 335.51 339.93 335.06 339.9C333.98 339.81 332.76 339.84 331.37 339.98C329.63 340.16 327.91 340.95 326.21 342.35C324.75 343.55 323.67 344.84 322.98 346.22C322.29 347.61 321.88 349.04 321.77 350.53C321.57 353.54 322.51 356.32 324.59 358.85L347.39 386.61C347.65 386.93 348.12 386.98 348.44 386.71L352.6 383.3C352.92 383.04 352.97 382.57 352.7 382.25L330.5 355.22C329.73 354.28 329.23 353.42 329 352.65H329.01Z" fill="white"/>
<path d="M297.82 363.46L300.65 368.03C300.87 368.38 301.33 368.49 301.68 368.27L311.99 361.89C312.34 361.67 312.8 361.78 313.02 362.13L319.65 372.83C319.87 373.18 319.76 373.64 319.41 373.86L310.6 379.32C310.25 379.54 310.14 380 310.36 380.35L312.98 384.58C313.2 384.93 313.66 385.04 314.01 384.82L322.82 379.36C323.17 379.14 323.63 379.25 323.85 379.6L330.48 390.31C330.7 390.66 330.59 391.12 330.24 391.34L319.93 397.72C319.58 397.94 319.47 398.4 319.69 398.75L322.31 402.98C322.53 403.33 322.99 403.44 323.34 403.22L339.49 393.22C339.84 393 339.95 392.54 339.73 392.19L315.25 352.65C315.03 352.3 314.57 352.19 314.22 352.41L298.07 362.41C297.72 362.63 297.61 363.09 297.83 363.44L297.82 363.46Z" fill="white"/>
<path d="M197.64 388.42C197.15 384.47 195.66 381.14 193.2 378.42C190.73 375.7 187.17 373.73 182.51 372.48C177.9 371.25 173.83 371.18 170.31 372.27C166.78 373.37 163.81 375.49 161.37 378.65C158.94 381.81 157.06 385.86 155.73 390.81C154.74 394.49 154.27 397.91 154.32 401.08C154.37 404.24 154.95 407.1 156.07 409.66C157.19 412.22 158.88 414.39 161.14 416.17C163.41 417.96 166.24 419.31 169.65 420.22C173.14 421.16 176.31 421.42 179.15 421.02C181.99 420.61 184.53 419.59 186.78 417.94C189.02 416.3 190.94 414.11 192.54 411.37C194.13 408.63 195.42 405.44 196.4 401.78C197.73 396.83 198.15 392.38 197.65 388.42H197.64ZM184.84 398.68C184.01 401.77 183 404.32 181.82 406.34C180.63 408.36 179.25 409.75 177.67 410.52C176.09 411.29 174.26 411.39 172.16 410.83C170.17 410.3 168.68 409.3 167.69 407.83C166.7 406.37 166.18 404.46 166.14 402.11C166.1 399.76 166.49 397.05 167.31 393.99C168.14 390.9 169.14 388.35 170.33 386.33C171.52 384.31 172.92 382.91 174.52 382.11C176.13 381.31 177.96 381.19 180.01 381.74C183.1 382.57 184.99 384.43 185.67 387.32C186.36 390.21 186.07 394 184.82 398.68H184.84Z" fill="#E30613"/>
<path d="M220.48 427.32L209.03 426.84L210.63 388.47L199.83 388.02L200.23 378.4L233.28 379.78L232.88 389.4L222.08 388.95L220.47 427.32H220.48Z" fill="#E30613"/>
<path d="M240.07 427.59L237.36 379.64L248.84 378.99L251.55 426.94L240.07 427.59Z" fill="#E30613"/>
<path d="M289.51 403.65C288.78 401.42 287.76 399.65 286.47 398.32C285.18 397 283.61 395.97 281.76 395.26C279.91 394.55 277.75 393.98 275.29 393.57C272.99 393.24 271.17 392.93 269.84 392.62C268.5 392.31 267.49 391.92 266.8 391.44C266.11 390.96 265.62 390.29 265.33 389.41C265.12 388.77 265.08 388.12 265.22 387.46C265.36 386.8 265.72 386.22 266.31 385.72C266.89 385.21 267.67 384.8 268.65 384.48C270.1 384 271.73 383.74 273.52 383.68C275.31 383.63 277.28 383.76 279.41 384.07L279.71 374.18C277.39 373.86 275.08 373.75 272.77 373.86C270.46 373.96 268.09 374.42 265.66 375.22C262.52 376.26 259.97 377.68 258.02 379.47C256.06 381.27 254.78 383.36 254.18 385.75C253.57 388.14 253.73 390.72 254.64 393.49C255.28 395.43 256.09 397.01 257.08 398.26C258.07 399.5 259.2 400.49 260.47 401.22C261.74 401.96 263.12 402.53 264.6 402.95C266.09 403.37 267.66 403.7 269.31 403.94C271.44 404.32 273.16 404.66 274.46 404.97C275.76 405.28 276.76 405.67 277.46 406.14C278.16 406.61 278.65 407.27 278.92 408.1C279.17 408.87 279.21 409.62 279.04 410.34C278.86 411.07 278.45 411.73 277.81 412.32C277.17 412.91 276.24 413.41 275.03 413.81C273.14 414.44 270.97 414.78 268.53 414.83C266.09 414.89 263.64 414.69 261.16 414.24L264.53 424.44C266.09 424.71 267.59 424.83 269.01 424.81C270.43 424.79 271.89 424.64 273.37 424.35C274.86 424.06 276.42 423.65 278.06 423.11C281.59 421.95 284.35 420.34 286.32 418.31C288.29 416.28 289.54 413.99 290.06 411.44C290.58 408.89 290.4 406.29 289.52 403.63L289.51 403.65Z" fill="#E30613"/>
</g>
<defs>
<clipPath id="clip0_6_36">
<rect width="453.63" height="453.63" fill="white"/>
</clipPath>
</defs>
</svg>
